<svg id="b49ea8e7-ebb5-4f59-898a-ca7943690137" data-name="Capa 1" xmlns="http://www.w3.org/2000/svg" viewBox="0 0 300 88.89"><path id="b3780d3c-2bca-43ac-a141-48c0afa1289a" data-name="Trazado 692" d="M298,78.39a8.51,8.51,0,0,1-8.52,8.52h-279A8.54,8.54,0,0,1,2,78.39V10.5A8.54,8.54,0,0,1,10.52,2h279A8.52,8.52,0,0,1,298,10.5h0V78.39Z" style="fill:#fff"/><path id="f180969a-d200-4af2-969f-e280a8415ba9" data-name="Trazado 693" d="M289.48,88.89h-279A10.51,10.51,0,0,1,0,78.4V10.51A10.52,10.52,0,0,1,10.52,0h279A10.52,10.52,0,0,1,300,10.51V78.39a10.51,10.51,0,0,1-10.51,10.5Z" style="fill:#a6a6a6"/><path id="b345b8fb-7930-40a2-bc2d-f37bdee2a228" data-name="Trazado 694" d="M298,78.39a8.51,8.51,0,0,1-8.52,8.52h-279A8.54,8.54,0,0,1,2,78.39V10.5A8.54,8.54,0,0,1,10.52,2h279A8.52,8.52,0,0,1,298,10.5h0V78.39Z"/><path id="f3582ccf-1e78-4ed1-a488-a768b0b52124" data-name="Trazado 695" d="M67,44c-.07-7.17,5.87-10.65,6.14-10.81a13.2,13.2,0,0,0-10.4-5.62c-4.38-.46-8.62,2.61-10.85,2.61s-5.7-2.57-9.4-2.5a13.86,13.86,0,0,0-11.65,7.1c-5,8.72-1.28,21.54,3.55,28.59,2.41,3.45,5.23,7.3,8.93,7.17s5-2.3,9.32-2.3,5.59,2.3,9.35,2.21,6.32-3.47,8.65-7a28.61,28.61,0,0,0,4-8A12.47,12.47,0,0,1,67,44ZM59.87,22.91a12.63,12.63,0,0,0,2.9-9.09,12.91,12.91,0,0,0-8.35,4.33c-1.79,2.09-3.39,5.52-3,8.75,3.16.24,6.4-1.59,8.43-4Z" style="fill:#fff"/><g id="a5c9728f-d8fd-481f-b94a-a9ae94f690d4" data-name="Grupo 370"><path id="ef1d4908-00d0-4b0f-8d19-fba21f3f2759" data-name="Trazado 697" d="M119.32,70h-5l-2.76-8.69h-9.62L99.26,70H94.34l9.53-29.58h5.88Zm-8.65-12.34L108.17,50c-.27-.79-.76-2.65-1.49-5.57h-.09q-.44,1.88-1.41,5.57l-2.45,7.72Zm33.1,1.41c0,3.63-1,6.49-3,8.6a8.66,8.66,0,0,1-6.57,2.81q-4.25,0-6.09-3v11.2h-4.74v-23q0-3.42-.18-7h4.17l.26,3.38h.09a8.43,8.43,0,0,1,11.67-2.45,8.27,8.27,0,0,1,1.83,1.61,11.75,11.75,0,0,1,2.52,7.86Zm-4.83.17a8.71,8.71,0,0,0-1.4-5.13A4.86,4.86,0,0,0,133.41,52a4.94,4.94,0,0,0-3.18,1.16,5.47,5.47,0,0,0-1.87,3.05,6.52,6.52,0,0,0-.22,1.45v3.56a5.7,5.7,0,0,0,1.43,3.93,4.77,4.77,0,0,0,3.71,1.6,4.86,4.86,0,0,0,4.17-2.07,9,9,0,0,0,1.49-5.44Zm29.37-.17c0,3.63-1,6.49-3,8.6a8.66,8.66,0,0,1-6.57,2.81q-4.25,0-6.1-3v11.2h-4.74v-23q0-3.42-.17-7h4.17l.26,3.38h.09A8.44,8.44,0,0,1,164,49.63a8.72,8.72,0,0,1,1.82,1.61,11.81,11.81,0,0,1,2.52,7.86Zm-4.83.17a8.79,8.79,0,0,0-1.41-5.13A4.84,4.84,0,0,0,158,52a4.94,4.94,0,0,0-3.18,1.16,5.4,5.4,0,0,0-1.87,3.06,6.35,6.35,0,0,0-.22,1.44v3.56a5.7,5.7,0,0,0,1.43,3.93,4.74,4.74,0,0,0,3.71,1.6A4.86,4.86,0,0,0,162,64.71a9.09,9.09,0,0,0,1.49-5.44Zm32.27,2.46a7.87,7.87,0,0,1-2.63,6.14c-1.93,1.73-4.61,2.59-8.06,2.59a14,14,0,0,1-7.66-1.84l1.1-4a13.2,13.2,0,0,0,6.85,1.85,6.44,6.44,0,0,0,4.16-1.21,3.93,3.93,0,0,0,1.5-3.22,4.09,4.09,0,0,0-1.23-3,11.34,11.34,0,0,0-4.08-2.28q-7.77-2.91-7.77-8.48a7.49,7.49,0,0,1,2.74-6A10.89,10.89,0,0,1,187.94,40a14.39,14.39,0,0,1,6.71,1.4l-1.19,3.86a11.82,11.82,0,0,0-5.68-1.36,5.78,5.78,0,0,0-3.92,1.23,3.49,3.49,0,0,0-1.19,2.68,3.62,3.62,0,0,0,1.36,2.9,14.93,14.93,0,0,0,4.3,2.28A14.54,14.54,0,0,1,194,56.6a7.53,7.53,0,0,1,1.8,5.13Zm15.71-9.48h-5.22V62.61q0,3.94,2.76,4a8.32,8.32,0,0,0,2.11-.22l.13,3.6a10.74,10.74,0,0,1-3.69.52,5.66,5.66,0,0,1-4.39-1.71Q201.59,67,201.58,63V52.25h-3.11V48.69h3.11V44.78l4.66-1.4v5.31h5.22v3.57ZM235,59.19a11.67,11.67,0,0,1-2.81,8.07,10,10,0,0,1-7.81,3.25,9.53,9.53,0,0,1-7.49-3.11,11.37,11.37,0,0,1-2.79-7.86A11.59,11.59,0,0,1,217,51.42a10,10,0,0,1,7.75-3.16,9.79,9.79,0,0,1,7.55,3.12A11.2,11.2,0,0,1,235,59.19Zm-4.91.1a9.54,9.54,0,0,0-1.27-5,4.71,4.71,0,0,0-4.26-2.54,4.77,4.77,0,0,0-4.35,2.54,9.67,9.67,0,0,0-1.27,5.12,9.56,9.56,0,0,0,1.27,5,4.86,4.86,0,0,0,6.59,2,4.93,4.93,0,0,0,2-2,9.64,9.64,0,0,0,1.31-5.08Zm20.33-6.43a9.5,9.5,0,0,0-1.5-.13,4.47,4.47,0,0,0-3.86,1.89,7.17,7.17,0,0,0-1.19,4.21V70h-4.73V55.41c0-2.23,0-4.47-.14-6.71h4.13l.17,4.08h.13a7.33,7.33,0,0,1,2.37-3.38,5.72,5.72,0,0,1,3.43-1.14,7.71,7.71,0,0,1,1.18.08v4.53Zm21.2,5.49a11.08,11.08,0,0,1-.18,2.15H257.21a6.19,6.19,0,0,0,2.06,4.83,7,7,0,0,0,4.66,1.49,15.5,15.5,0,0,0,5.75-1l.74,3.29a17.7,17.7,0,0,1-7.15,1.32,10.38,10.38,0,0,1-7.8-2.92,10.79,10.79,0,0,1-2.83-7.83,12.24,12.24,0,0,1,2.64-8,9.09,9.09,0,0,1,7.46-3.42,8,8,0,0,1,7,3.42,11.51,11.51,0,0,1,1.89,6.71Zm-4.52-1.23a6.4,6.4,0,0,0-.93-3.64,4.11,4.11,0,0,0-3.77-2,4.51,4.51,0,0,0-3.77,1.93,7,7,0,0,0-1.4,3.69Z" style="fill:#fff"/></g><g id="fd526bb5-b217-4027-abe8-dd48fd210de7" data-name="Grupo 371"><path id="a25abe9b-32d5-4221-b9fc-5ffb76d20c60" data-name="Trazado 698" d="M100.52,30a30.09,30.09,0,0,1-3.41-.18V15.51a25.72,25.72,0,0,1,4-.29c5.43,0,7.94,2.67,7.94,7C109.07,27.27,106.11,30,100.52,30Zm.8-12.95a9.76,9.76,0,0,0-1.87.15V28.07a13.74,13.74,0,0,0,1.57.06c3.56,0,5.59-2,5.59-5.82,0-3.39-1.84-5.26-5.29-5.26ZM116.87,30.1c-3.06,0-5.05-2.29-5.05-5.4s2-5.54,5.22-5.54c3,0,5,2.18,5,5.37S120,30.1,116.87,30.1Zm.09-9.24c-1.68,0-2.76,1.58-2.76,3.78s1.1,3.73,2.74,3.73,2.74-1.68,2.74-3.78-1.08-3.73-2.72-3.73Zm22.61-1.48-3.28,10.48h-2.14l-1.36-4.55a33.55,33.55,0,0,1-.84-3.39h0a22.09,22.09,0,0,1-.84,3.39l-1.44,4.55h-2.16l-3.09-10.48h2.4l1.18,5c.28,1.19.52,2.31.72,3.37h0a34.09,34.09,0,0,1,.86-3.35l1.49-5H133l1.43,4.9c.34,1.19.62,2.35.84,3.45h.06a31.51,31.51,0,0,1,.71-3.45l1.28-4.9Zm12.07,10.48h-2.33v-6c0-1.85-.71-2.78-2.12-2.78a2.42,2.42,0,0,0-2.33,2.5v6.3h-2.33V22.37c0-.92,0-1.92-.08-3h2.05l.11,1.62h.06A3.79,3.79,0,0,1,148,19.16c2.2,0,3.65,1.68,3.65,4.42v6.28Zm6.42,0h-2.33V14.57h2.33Zm8.5.24c-3.06,0-5-2.29-5-5.4s2-5.54,5.22-5.54c3,0,5,2.18,5,5.37s-2.09,5.57-5.22,5.57Zm.09-9.24c-1.68,0-2.76,1.58-2.76,3.78s1.1,3.73,2.74,3.73,2.74-1.68,2.74-3.78-1.08-3.73-2.72-3.73Zm14.32,9-.17-1.2h-.06a3.59,3.59,0,0,1-3.06,1.44,3,3,0,0,1-3.21-2.88,1.41,1.41,0,0,1,0-.2c0-2.59,2.25-3.93,6.13-3.93V22.9c0-1.38-.73-2.07-2.18-2.07a4.92,4.92,0,0,0-2.74.77l-.47-1.53a6.78,6.78,0,0,1,3.6-.91c2.74,0,4.12,1.45,4.12,4.34v3.86a17.39,17.39,0,0,0,.15,2.5Zm-.32-5.22c-2.59,0-3.88.63-3.88,2.12a1.48,1.48,0,0,0,1.31,1.63h.29a2.22,2.22,0,0,0,2.28-2.13Zm13.59,5.22-.11-1.68h-.07a3.5,3.5,0,0,1-3.36,1.92c-2.53,0-4.4-2.22-4.4-5.35,0-3.28,1.94-5.59,4.59-5.59a3.18,3.18,0,0,1,3,1.43h0v-6h2.34V27c0,1,0,2,.08,2.83Zm-.35-6.17A2.54,2.54,0,0,0,191.55,21h-.11c-1.73,0-2.79,1.53-2.79,3.68s1.1,3.56,2.74,3.56a2.61,2.61,0,0,0,2.5-2.72V23.69ZM211,30.1c-3.06,0-5-2.29-5-5.4s2-5.54,5.22-5.54c3,0,5,2.18,5,5.37S214.14,30.1,211,30.1Zm.09-9.24c-1.68,0-2.76,1.58-2.76,3.78s1.1,3.73,2.73,3.73,2.74-1.68,2.74-3.78-1.07-3.73-2.71-3.73Zm17.66,9h-2.33v-6c0-1.85-.71-2.78-2.11-2.78a2.42,2.42,0,0,0-2.34,2.5v6.3h-2.33V22.37q0-1.38-.09-3h2.05l.11,1.62h.06a3.77,3.77,0,0,1,3.32-1.83c2.2,0,3.65,1.68,3.65,4.42Zm15.68-8.73h-2.56v5.09c0,1.3.45,1.94,1.35,1.94a4.54,4.54,0,0,0,1-.11l.06,1.77a5.26,5.26,0,0,1-1.81.26c-1.84,0-2.93-1-2.93-3.67V21.12h-1.53V19.38h1.53V17.46l2.28-.7v2.62h2.57Zm12.34,8.73h-2.33v-6c0-1.87-.71-2.82-2.12-2.82A2.29,2.29,0,0,0,250,23.29a2.09,2.09,0,0,0,0,.25v6.32h-2.33V14.57H250v6.3h.05a3.51,3.51,0,0,1,3.15-1.7c2.22,0,3.58,1.72,3.58,4.46v6.24Zm12.63-4.68h-7a3,3,0,0,0,2.89,3.12,2.82,2.82,0,0,0,.41,0,7.77,7.77,0,0,0,2.82-.5l.36,1.62a8.62,8.62,0,0,1-3.51.65c-3.28,0-5.22-2.07-5.22-5.29s2-5.63,4.95-5.63c2.68,0,4.36,2,4.36,5a4.1,4.1,0,0,1-.08,1.05Zm-2.14-1.66c0-1.62-.81-2.76-2.3-2.76a2.76,2.76,0,0,0-2.55,2.76Z" style="fill:#fff"/></g></svg>