<svg id="instagram-sketched_1_" data-name="instagram-sketched (1)" xmlns="http://www.w3.org/2000/svg" width="45.162" height="45.162" viewBox="0 0 45.162 45.162">
  <path id="Trazado_730" data-name="Trazado 730" d="M218.939,214.969A3.969,3.969,0,1,1,214.969,211,3.969,3.969,0,0,1,218.939,214.969Zm0,0" transform="translate(-192.388 -192.388)" fill="#fafafa"/>
  <path id="Trazado_731" data-name="Trazado 731" d="M138.7,120H125.292A5.3,5.3,0,0,0,120,125.292V138.7a5.3,5.3,0,0,0,5.292,5.292H138.7a5.3,5.3,0,0,0,5.292-5.292V125.292A5.3,5.3,0,0,0,138.7,120ZM132,138.612A6.616,6.616,0,1,1,138.612,132,6.623,6.623,0,0,1,132,138.612Zm7.586-12.878a1.323,1.323,0,1,1,1.323-1.323A1.323,1.323,0,0,1,139.582,125.734Zm0,0" transform="translate(-109.415 -109.415)" fill="#fafafa"/>
  <path id="Trazado_732" data-name="Trazado 732" d="M33.254,0H11.908A11.922,11.922,0,0,0,0,11.908V33.254A11.922,11.922,0,0,0,11.908,45.162H33.254A11.922,11.922,0,0,0,45.162,33.254V11.908A11.922,11.922,0,0,0,33.254,0Zm3.969,29.285a7.948,7.948,0,0,1-7.939,7.939H15.877a7.948,7.948,0,0,1-7.939-7.939V15.877a7.948,7.948,0,0,1,7.939-7.939H29.285a7.948,7.948,0,0,1,7.939,7.939Zm0,0" fill="#fafafa"/>
</svg>
