<svg id="ac0be7cc-9473-4d50-8896-08a87f840ea1" data-name="Capa 1" xmlns="http://www.w3.org/2000/svg" viewBox="0 0 239.47 131.38"><path d="M231.66,56.75a23.35,23.35,0,0,0-4-2.94h3.67l1.35-4.6,4.42-15.05,2.41-8.2H170A58.56,58.56,0,0,0,128.34.82l-4-.46V.1L123,.2,121.21,0V.32l-3.7.25A59.47,59.47,0,0,0,72.43,26.93a36.34,36.34,0,0,0-14.2-2.61H10.86L9.32,28.53,3.66,44.06.52,52.66H27.25l-.52,1-7.07,14.1L16.07,75H11.94l-1.65,3.9L3.78,94.19,0,103.09H42.65A18.81,18.81,0,0,0,58.9,131.38H184.24a18.81,18.81,0,0,0,16.06-28.6h7.89c10.12,0,17.93-2.42,23.23-7.21s7.89-11.51,7.89-20.15C239.31,67.75,236.66,61.3,231.66,56.75Z" style="fill:#fff"/><path d="M117.94,7V17.35a41.88,41.88,0,0,0-29,67.94L81.8,92.93A52.23,52.23,0,0,1,117.94,7Z" style="fill:#cdcfd2"/><path d="M173.8,59.07A52,52,0,0,1,163.21,90.6l-7.82-6.83a41.88,41.88,0,0,0-27.78-66.14V7.18A52.25,52.25,0,0,1,173.8,59.07Z" style="fill:#cdcfd2"/><path d="M156.69,97.73a52.24,52.24,0,0,1-68,2l7.07-7.6a41.89,41.89,0,0,0,53-1.21Z" style="fill:#cdcfd2"/><path d="M126.36,26.17a32.83,32.83,0,0,0-4.79-.35q-1.45,0-2.88.12a33.29,33.29,0,1,0,7.67.23ZM139,59.38,114.22,73.71a1.58,1.58,0,0,1-2.37-1.37V43.68a1.58,1.58,0,0,1,2.37-1.37L139,56.64A1.59,1.59,0,0,1,139,59.38Z" style="fill:#272424"/><path d="M16.18,81.36H58.72c3.75,0,5.32-3.21,5.32-6.27,0-2.86-1.57-4.43-5.32-4.43H25.39l7.06-14.1H59c2.5,0,4.83-1.09,4.83-4.44S61.38,46.26,59,46.26H9.67l5.67-15.53H58.23c13.3,0,21.87,6.11,21.87,18.24,0,7.78-3.75,12.12-7.57,13.8,4.82,1.68,8.73,6.81,8.73,14.69,0,10.94-5.07,19.23-22.62,19.23h-49Z" style="fill:#f2150f"/><path d="M230.92,32.36l-4.42,15H183.22v8.9H211.3c14,0,21.6,7.44,21.6,19.11,0,13.11-7.17,21-24.71,21H162.48l8-14.86h39.09c4.15,0,6.14-2.94,6.14-6.29s-2-6.2-6.14-6.2H165.51V32.36Z" style="fill:#f2150f"/><path d="M184.24,100.16H58.9a12.41,12.41,0,1,0,0,24.82H184.24a12.41,12.41,0,0,0,0-24.82Z" style="fill:#272424"/><path d="M79.56,119.41V108.88l-7.5,10.53H70.43l-7.5-10.51v10.51H61.09V105.73H63l8.37,11.76,8.36-11.76h1.73v13.68Z" style="fill:#fff"/><path d="M84.05,119.41V105.73H97.76v1.58H86.05v4.1H97.2V113H86.05v4.9H97.76v1.55Z" style="fill:#fff"/><path d="M100.09,119.41V105.73h12.22c3.77,0,4.94,1.34,4.94,4v5.74c0,2.56-1.17,3.9-4.94,3.9Zm15.17-9.64c0-1.8-.68-2.46-3-2.46H102.09v10.55h10.22c2.27,0,3-.66,3-2.35Z" style="fill:#fff"/><path d="M119.91,119.41V105.73h2v13.68Z" style="fill:#fff"/><path d="M140.65,119.41l-7.48-11.62-7.57,11.62h-2.22l9.08-13.68h1.43l9,13.68Z" style="fill:#fff"/><path d="M144.19,119.41v-2.52h2.37v2.52Z" style="fill:#fff"/><path d="M152.89,119.41v-12.1h-7.28v-1.58h16.31v1.58h-7v12.1Z" style="fill:#fff"/><path d="M171.58,119.41l-9.06-13.68h2.28l7.54,11.64,7.51-11.64h2.2l-9,13.68Z" style="fill:#fff"/></svg>