<svg id="b9883ecb-bd63-4a0d-a408-681b260fe414" data-name="Capa 1" xmlns="http://www.w3.org/2000/svg" xmlns:xlink="http://www.w3.org/1999/xlink" viewBox="0 0 300 88.89"><defs><linearGradient id="bad54c47-4ce4-4473-958d-03d3b47b8082" x1="-429.1" y1="427.48" x2="-430.39" y2="428.15" gradientTransform="matrix(29.88, 0, 0, -57.41, 12870.77, 24611.84)" gradientUnits="userSpaceOnUse"><stop offset="0" stop-color="#00a0ff"/><stop offset="0.01" stop-color="#00a1ff"/><stop offset="0.26" stop-color="#00beff"/><stop offset="0.51" stop-color="#00d2ff"/><stop offset="0.76" stop-color="#00dfff"/><stop offset="1" stop-color="#00e3ff"/></linearGradient><linearGradient id="a7447308-3059-430b-8e34-b1021dc0ee0b" x1="-427.15" y1="415" x2="-429.53" y2="415" gradientTransform="matrix(23.31, 0, 0, -19.52, 10035.06, 8144.89)" gradientUnits="userSpaceOnUse"><stop offset="0" stop-color="#ffe000"/><stop offset="0.41" stop-color="#ffbd00"/><stop offset="0.78" stop-color="orange"/><stop offset="1" stop-color="#ff9c00"/></linearGradient><linearGradient id="a82a361d-a2fe-44f0-9209-bd6064f8c481" x1="-431.15" y1="421.77" x2="-432.51" y2="423.54" gradientTransform="matrix(38.35, 0, 0, -29.59, 16569.64, 12537.49)" gradientUnits="userSpaceOnUse"><stop offset="0" stop-color="#ff3a44"/><stop offset="1" stop-color="#c31162"/></linearGradient><linearGradient id="ba6feaca-081e-4a0c-a1d2-201adab801f8" x1="-432.35" y1="419.96" x2="-431.74" y2="420.75" gradientTransform="matrix(38.35, 0, 0, -29.46, 16569.64, 12450.06)" gradientUnits="userSpaceOnUse"><stop offset="0" stop-color="#32a071"/><stop offset="0.07" stop-color="#2da771"/><stop offset="0.48" stop-color="#15cf74"/><stop offset="0.8" stop-color="#06e775"/><stop offset="1" stop-color="#00f076"/></linearGradient></defs><path id="a58ba75c-dbd7-4826-8a41-a916ec5b0a67" data-name="Trazado 699" d="M288.89,88.89H11.11A11,11,0,0,1,0,78V11.11A11,11,0,0,1,10.89,0h278A11,11,0,0,1,300,10.89V77.78a11,11,0,0,1-10.89,11.11Z" transform="translate(0 0)"/><path id="a103fce7-ead4-4dac-8e81-f9873a3aee17" data-name="Trazado 700" d="M288.89,1.78a9.39,9.39,0,0,1,9.33,9.33V77.78a9.39,9.39,0,0,1-9.33,9.33H11.11a9.39,9.39,0,0,1-9.33-9.33V11.11a9.39,9.39,0,0,1,9.33-9.33H288.89m0-1.78H11.11A11.14,11.14,0,0,0,0,11.11V77.78A11,11,0,0,0,10.89,88.89h278A11,11,0,0,0,300,78V11.11A11.14,11.14,0,0,0,288.89,0Z" transform="translate(0 0)" style="fill:#a6a6a6"/><path id="e90091fb-55a5-41c5-a957-ce045cf0d9aa" data-name="Trazado 701" d="M104.54,22.82a6.21,6.21,0,0,1-1.61,4.59,7.21,7.21,0,0,1-10.1,0,6.76,6.76,0,0,1-2.07-5.05,7.07,7.07,0,0,1,7.12-7.12,6.16,6.16,0,0,1,2.76.69,4.94,4.94,0,0,1,2.06,1.61l-1.14,1.15a4.29,4.29,0,0,0-3.68-1.61,4.55,4.55,0,0,0-3.67,1.61,4.74,4.74,0,0,0-1.61,3.9,4.75,4.75,0,0,0,1.61,3.9,6,6,0,0,0,3.67,1.61,5,5,0,0,0,3.9-1.61,3.8,3.8,0,0,0,1.15-2.75H97.88V21.9h6.66Zm10.56-5.74h-6.2v4.36h5.74v1.61H108.9v4.36h6.2v1.84h-8V15.47h8Zm7.58,12.17h-1.84V17.08h-3.9V15.47h9.65v1.61h-3.9Zm10.57,0V15.47h1.83V29.25Zm9.64,0h-1.84V17.08h-3.9V15.47h9.41v1.61h-3.9V29.25Zm21.81-1.84a7.21,7.21,0,0,1-10.1,0,6.71,6.71,0,0,1-2.06-5.05,6.7,6.7,0,0,1,2.06-5.05,7.2,7.2,0,0,1,10.1,0,6.75,6.75,0,0,1,2.07,5.05A6.76,6.76,0,0,1,164.7,27.41ZM156,26.26a5.41,5.41,0,0,0,3.67,1.61,4.57,4.57,0,0,0,3.68-1.61,5.58,5.58,0,0,0,1.6-3.9,4.74,4.74,0,0,0-1.6-3.9,5.43,5.43,0,0,0-3.68-1.6,4.57,4.57,0,0,0-3.67,1.6,5.54,5.54,0,0,0-1.61,3.9A4.74,4.74,0,0,0,156,26.26Zm13.32,3V15.47h2.06L178,26.26V15.47h1.84V29.25H178L170.9,18V29.25Z" transform="translate(0 0)" style="fill:#fff;stroke:#fff;stroke-miterlimit:10;stroke-width:0.20000000298023224px"/><path id="a7a08a5d-46de-4dcb-8d6e-dfe3b625089f" data-name="Trazado 702" d="M146.38,47.1a9.66,9.66,0,0,0-9.88,9.44V57a9.82,9.82,0,0,0,9.73,9.88h.15a9.67,9.67,0,0,0,9.87-9.45,3.09,3.09,0,0,0,0-.43,9.52,9.52,0,0,0-9.16-9.87Zm0,15.61a5.7,5.7,0,0,1-5.52-5.88s0-.06,0-.09a5.69,5.69,0,0,1,5.42-6h.09c3,0,5.51,2.3,5.51,6a5.7,5.7,0,0,1-5.42,6ZM125,47.1a9.66,9.66,0,0,0-9.87,9.44,3.09,3.09,0,0,0,0,.43,9.81,9.81,0,0,0,9.72,9.88H125a9.67,9.67,0,0,0,9.88-9.45V57a9.52,9.52,0,0,0-9.17-9.87Zm0,15.61a5.7,5.7,0,0,1-5.51-5.88v-.09a5.7,5.7,0,0,1,5.42-6H125c3,0,5.51,2.3,5.51,6a5.7,5.7,0,0,1-5.42,6ZM99.53,50.08v4.14h9.88a8.76,8.76,0,0,1-2.3,5.28,10.18,10.18,0,0,1-7.58,3A10.68,10.68,0,0,1,88.74,51.89c0-.14,0-.29,0-.43a10.83,10.83,0,0,1,10.64-11h.15a11.37,11.37,0,0,1,7.58,3l3-3A14.75,14.75,0,0,0,99.76,36.3,15.5,15.5,0,0,0,84.38,51.46,15.5,15.5,0,0,0,99.76,66.62c4.6,0,7.81-1.38,10.57-4.37A13.83,13.83,0,0,0,114,52.6a8.56,8.56,0,0,0-.23-2.52ZM203.79,53.3c-.92-2.3-3.22-6.2-8.27-6.2S186.33,51,186.33,57a9.61,9.61,0,0,0,9.35,9.87h.3a9.4,9.4,0,0,0,8-4.37l-3.21-2.3A5.6,5.6,0,0,1,196,62.94a5,5,0,0,1-4.82-3l13.08-5.51-.45-1.15Zm-13.32,3.21a5.57,5.57,0,0,1,5.05-5.74,4.06,4.06,0,0,1,3.67,2.07Zm-10.79,9.42H184V37.23h-4.36Zm-6.89-16.77a7.59,7.59,0,0,0-5.28-2.3c-4.82,0-9.42,4.37-9.42,9.88a9.51,9.51,0,0,0,9.37,9.64h0a6.57,6.57,0,0,0,5.05-2.3h.23v1.38c0,3.67-2.07,5.74-5.28,5.74a5.08,5.08,0,0,1-4.82-3.44L159,69.36a9.47,9.47,0,0,0,8.73,5.74c5,0,9.18-3,9.18-10.1V47.56h-4.13v1.6Zm-5,13.55a5.7,5.7,0,0,1-5.52-5.88.28.28,0,0,1,0-.09,5.71,5.71,0,0,1,5.42-6h.09c3,0,5.28,2.53,5.28,6s-2.3,6-5.29,6Zm56-25.49H213.43v28.7h4.36V55.13h6c4.83,0,9.42-3.44,9.42-9s-4.59-9-9.42-9ZM224,51h-6.2V41.13H224A5,5,0,0,1,229.05,46,5.26,5.26,0,0,1,224,51Zm26.4-4.13c-3.21,0-6.43,1.38-7.57,4.36l3.9,1.61a4,4,0,0,1,3.9-2.07c2.3,0,4.36,1.38,4.59,3.67v.23a9.15,9.15,0,0,0-4.36-1.14c-4.14,0-8.27,2.3-8.27,6.43,0,3.9,3.44,6.43,7.12,6.43a6.48,6.48,0,0,0,5.51-2.76h.23v2.3h4.13v-11c-.46-5-4.36-8-9.18-8Zm-.46,15.84c-1.37,0-3.44-.69-3.44-2.52,0-2.3,2.53-3,4.59-3a8.91,8.91,0,0,1,3.9.92,5.34,5.34,0,0,1-5.05,4.59Zm24.12-15.15L269.23,60H269L264,47.56h-4.59L266.93,65l-4.36,9.65h4.36l11.72-27.1ZM235.48,65.93h4.36V37.23h-4.36Z" transform="translate(0 0)" style="fill:#fff"/><g id="a39f7bec-0208-4eff-b38e-f4ee5eef0c25" data-name="Grupo 372"><path id="ecc66705-6604-4dcf-850e-2a7ff0b6873b" data-name="Trazado 703" d="M23.88,15.74A4.46,4.46,0,0,0,23,19V69.7a4.55,4.55,0,0,0,1.15,3.22l.23.23L52.82,44.67v-.46Z" transform="translate(0 0)" style="fill:url(#bad54c47-4ce4-4473-958d-03d3b47b8082)"/><path id="e8104363-40e6-4c56-95b5-b7a4bbb41d48" data-name="Trazado 704" d="M62,54.32,52.58,44.9v-.69L62,34.8l.23.23,11.25,6.43c3.22,1.83,3.22,4.82,0,6.65Z" transform="translate(0 0)" style="fill:url(#a7447308-3059-430b-8e34-b1021dc0ee0b)"/><path id="b1175153-600a-45e5-bac5-2cc03f68bdb7" data-name="Trazado 705" d="M62.23,54.09l-9.65-9.65-28.7,28.7c1.15,1.15,2.76,1.15,4.82.23L62.23,54.09" transform="translate(0 0)" style="fill:url(#a82a361d-a2fe-44f0-9209-bd6064f8c481)"/><path id="e8cf43d9-91a8-4290-ab61-71782354ad60" data-name="Trazado 706" d="M62.23,34.8,28.7,15.74c-2.06-1.15-3.67-.92-4.82.23l28.7,28.47,9.65-9.64Z" transform="translate(0 0)" style="fill:url(#ba6feaca-081e-4a0c-a1d2-201adab801f8)"/><path id="b045c6fb-605f-4a50-ae79-651bef870b9e" data-name="Trazado 707" d="M62,53.86,28.7,72.69a3.77,3.77,0,0,1-4.59,0l-.23.23.23.23a3.77,3.77,0,0,0,4.59,0Z" transform="translate(0 0)" style="opacity:0.20000000298023224;isolation:isolate"/><path id="a1f10db1-32e5-4d67-a54d-0c0f0e1658bb" data-name="Trazado 708" d="M23.88,72.69A4.5,4.5,0,0,1,23,69.47v.23a4.55,4.55,0,0,0,1.15,3.22v-.23Zm49.6-25.26L62,53.86l.23.23,11.25-6.43c1.61-.92,2.3-2.07,2.3-3.22C75.78,45.59,74.86,46.51,73.48,47.43Z" transform="translate(0 0)" style="opacity:0.11999999731779099;isolation:isolate"/><path id="ebb3176c-1c86-457a-ad4b-b7f52966a914" data-name="Trazado 709" d="M28.7,16,73.48,41.46c1.38.92,2.3,1.83,2.3,3,0-1.15-.69-2.3-2.3-3.21L28.7,15.74C25.49,13.9,23,15.28,23,19v.23C23,15.74,25.49,14.13,28.7,16Z" transform="translate(0 0)" style="fill:#fff;opacity:0.25;isolation:isolate"/></g></svg>