<svg id="fa898a45-1828-4a57-a39b-aaa47e3b8540" data-name="Capa 1" xmlns="http://www.w3.org/2000/svg" viewBox="0 0 200.78 200.54"><g id="b4d7735b-928a-411f-beb3-6e0d25f7b4ed" data-name="Grupo 12"><path id="a13c7fcf-4cbd-46b5-b9b5-7d9177a1c9f7" data-name="Trazado 20" d="M93.43,0V20a80.5,80.5,0,0,0-55.8,130.59L24,165.23A100.39,100.39,0,0,1,93.43,0Z" style="fill:#fff"/><path id="b826079c-de30-4f63-831a-c04823fdb136" data-name="Trazado 21" d="M200.78,100.15a99.88,99.88,0,0,1-20.35,60.6l-15-13.12A80.5,80.5,0,0,0,112,20.5V.43A100.4,100.4,0,0,1,200.78,100.15Z" style="fill:#fff"/><path id="b797acf1-832d-4637-97ca-9542dc6b72eb" data-name="Trazado 22" d="M167.9,174.46A100.39,100.39,0,0,1,37.26,178.2l13.6-14.6a80.49,80.49,0,0,0,101.91-2.34Z" style="fill:#fff"/><path id="bca6de87-555f-4214-b696-245864e56b25" data-name="Trazado 23" d="M109.61,36.91a63.14,63.14,0,0,0-9.22-.66c-1.86,0-3.71.07-5.53.23a63.9,63.9,0,1,0,14.75.43ZM134,100.75l-47.7,27.54a3,3,0,0,1-4.15-1.12,3,3,0,0,1-.41-1.52V70.57a3,3,0,0,1,3-3,3,3,0,0,1,1.52.41L134,95.48a3,3,0,0,1,0,5.27Z" style="fill:#fff"/></g></svg>