<svg id="Grupo_378" data-name="Grupo 378" xmlns="http://www.w3.org/2000/svg" width="176.092" height="44.376" viewBox="0 0 176.092 44.376">
  <g id="spotify">
    <g id="Grupo_7" data-name="Grupo 7">
      <path id="Trazado_13" data-name="Trazado 13" d="M22.188,0A22.188,22.188,0,1,0,44.377,22.188,22.214,22.214,0,0,0,22.188,0ZM32.367,32.029a1.384,1.384,0,0,1-1.134.591,1.362,1.362,0,0,1-.8-.252c-5.2-3.656-13.851-3.858-19.692-2.5a1.388,1.388,0,0,1-.627-2.7c6.421-1.487,16.017-1.215,21.911,2.932A1.387,1.387,0,0,1,32.367,32.029Zm2.707-5.411a1.388,1.388,0,0,1-1.936.316C27.106,22.6,19.695,21.528,9.8,23.547a1.387,1.387,0,0,1-.557-2.718c10.7-2.183,18.8-.962,25.508,3.85A1.392,1.392,0,0,1,35.074,26.618Zm2.735-7.267a1.39,1.39,0,0,1-1.928.369c-7.647-5.189-19.271-5.214-26.8-2.552a1.388,1.388,0,0,1-.924-2.618c8.185-2.893,20.868-2.832,29.28,2.873A1.391,1.391,0,0,1,37.809,19.351Z" fill="#fafafa"/>
    </g>
  </g>
  <g id="Grupo_377" data-name="Grupo 377" transform="translate(55.47 6.282)">
    <path id="Trazado_710" data-name="Trazado 710" d="M277.737,173.537a13.634,13.634,0,0,1,9.022,3.11.468.468,0,0,1,.1.644l-2.155,3.02a.467.467,0,0,1-.667.1,12.243,12.243,0,0,0-1.866-1.2,10.481,10.481,0,0,0-4.429-1.2c-1.462,0-3.807.478-3.807,2.779,0,1.853,1.636,2.548,6.687,3.793,3.286.854,7.122,2.432,7.122,7.469,0,4.632-3.85,7.556-9.163,7.556a15.413,15.413,0,0,1-10.376-4.022.466.466,0,0,1-.018-.628l2.424-2.853a.466.466,0,0,1,.674-.041,11.078,11.078,0,0,0,7.282,3.043c4.372,0,4.2-2.635,4.2-3.025,0-.84-.608-2.012-2.765-2.62s-7.57-1.621-9.6-3.98a6.431,6.431,0,0,1-1.418-4.342C268.98,178.357,270.775,173.537,277.737,173.537Z" transform="translate(-268.07 -171.516)" fill="#fafafa"/>
    <path id="Trazado_711" data-name="Trazado 711" d="M343.491,191.825a7.824,7.824,0,0,0-6,2.867v-1.987a.468.468,0,0,0-.468-.468h-4a.468.468,0,0,0-.468.468v24.016a.467.467,0,0,0,.468.468h4.015a.468.468,0,0,0,.468-.468v-7.48a7.843,7.843,0,0,0,6.2,2.621c3.366,0,8.79-2.7,8.79-9.937S347.389,191.825,343.491,191.825Zm-1.038,15.766c-2.723,0-5.033-2.365-5.033-5.748,0-2.063,1.292-5.665,4.978-5.665s5.088,2.97,5.088,5.665S346,207.591,342.453,207.591Z" transform="translate(-311.271 -183.772)" fill="#fafafa"/>
    <path id="Trazado_712" data-name="Trazado 712" d="M407.255,191.825a10.126,10.126,0,0,0-10.2,10.059,10.246,10.246,0,1,0,10.2-10.059Zm.041,15.766a5.547,5.547,0,0,1-5.376-5.724,5.353,5.353,0,0,1,5.376-5.689,5.482,5.482,0,0,1,5.294,5.689C412.591,205.748,409.868,207.591,407.3,207.591Z" transform="translate(-354.485 -183.772)" fill="#fafafa"/>
    <path id="Trazado_713" data-name="Trazado 713" d="M472.345,186.48v-3.41a.468.468,0,0,0-.468-.468h-4.565v-4.619a.468.468,0,0,0-.468-.468h-3.932a.467.467,0,0,0-.468.468V182.6H460.52a.468.468,0,0,0-.468.468v3.41a.468.468,0,0,0,.468.468h1.925V196.6c0,2.173.99,5.61,5.308,5.61a10.684,10.684,0,0,0,4.323-.994.467.467,0,0,0,.27-.424v-3.339a.374.374,0,0,0-.584-.311,3.938,3.938,0,0,1-2.276.64c-2.063,0-2.173-1.4-2.173-2.393v-8.443h4.565A.468.468,0,0,0,472.345,186.48Z" transform="translate(-396.693 -174.185)" fill="#fafafa"/>
    <circle id="Elipse_3" data-name="Elipse 3" cx="3.038" cy="3.038" r="3.038" transform="translate(77.086 0)" fill="#fafafa"/>
    <rect id="Rectángulo_12" data-name="Rectángulo 12" width="4.876" height="19.279" rx="1.417" transform="translate(77.679 8.417)" fill="#fafafa"/>
    <path id="Trazado_714" data-name="Trazado 714" d="M526.583,182.535h-1.9a.468.468,0,0,1-.468-.468v-3.41a.468.468,0,0,1,.468-.468h1.9v-1.238c0-.825.138-6.023,5.968-6.023,2.888,0,3.83.647,3.83.647v3.507c0,.35-.124.639-.5.5a7.951,7.951,0,0,0-2.351-.433,1.991,1.991,0,0,0-2.1,2.083v.962h7.146a.467.467,0,0,1,.436.3l5,12.929,4.49-12.887a.467.467,0,0,1,.442-.314h4.392a.3.3,0,0,1,.277.4c-1.03,2.665-6.87,17.772-7.621,19.689-.825,2.1-2.228,4.971-6.25,4.971a8.159,8.159,0,0,1-4.464-1.192.467.467,0,0,1-.169-.59l1.432-3.072a.237.237,0,0,1,.339-.1,4.848,4.848,0,0,0,2.429.74c1.6,0,2.31-1.887,2.31-1.887l-6.126-14.638h-4.033v14.5a.467.467,0,0,1-.468.468h-3.953a.468.468,0,0,1-.468-.468Z" transform="translate(-439.683 -169.772)" fill="#fafafa"/>
    <g id="Grupo_375" data-name="Grupo 375" transform="translate(116.334 9.753)">
      <path id="Trazado_715" data-name="Trazado 715" d="M620.572,196.976h1.46a1.273,1.273,0,0,1,.931.324,1,1,0,0,1,.274.73v.009a.992.992,0,0,1-.684.99l.78,1.141h-.821l-.685-1.022h-.552v1.022h-.7Zm1.414,1.551c.342,0,.538-.182.538-.451v-.009c0-.3-.21-.456-.552-.456h-.7v.917Z" transform="translate(-620.572 -196.976)" fill="#fafafa"/>
    </g>
    <g id="Grupo_376" data-name="Grupo 376" transform="translate(114.591 8.41)">
      <path id="Trazado_716" data-name="Trazado 716" d="M618.3,198.937a3.015,3.015,0,1,1,3.015-3.016A3.019,3.019,0,0,1,618.3,198.937Zm0-5.7a2.685,2.685,0,1,0,2.685,2.685A2.688,2.688,0,0,0,618.3,193.236Z" transform="translate(-615.289 -192.906)" fill="#fafafa"/>
    </g>
  </g>
</svg>
