<svg xmlns="http://www.w3.org/2000/svg" width="171.075" height="38.192" viewBox="0 0 171.075 38.192">
  <g id="logo_Youtube" data-name="logo Youtube" transform="translate(-84.55 -85.039)">
    <path id="Trazado_720" data-name="Trazado 720" d="M137.969,91a6.834,6.834,0,0,0-4.824-4.823c-4.255-1.14-21.316-1.14-21.316-1.14s-17.061,0-21.316,1.14A6.834,6.834,0,0,0,85.69,91c-1.14,4.255-1.14,13.132-1.14,13.132s0,8.877,1.14,13.132a6.833,6.833,0,0,0,4.824,4.823c4.255,1.14,21.316,1.14,21.316,1.14s17.061,0,21.316-1.14a6.833,6.833,0,0,0,4.824-4.823c1.14-4.255,1.14-13.132,1.14-13.132S139.109,95.257,137.969,91Zm-31.6,21.316V95.951l14.174,8.184Z" fill="#fff"/>
    <g id="Grupo_381" data-name="Grupo 381" transform="translate(144.506 86.541)">
      <g id="Grupo_380" data-name="Grupo 380">
        <path id="Trazado_721" data-name="Trazado 721" d="M257.224,133.352a5.94,5.94,0,0,1-2.3-3.394,22.2,22.2,0,0,1-.683-6.126v-3.472a20.13,20.13,0,0,1,.78-6.2,6.224,6.224,0,0,1,2.439-3.414,7.9,7.9,0,0,1,4.35-1.073,7.421,7.421,0,0,1,4.253,1.093,6.263,6.263,0,0,1,2.341,3.414,20.938,20.938,0,0,1,.741,6.184v3.472a21.3,21.3,0,0,1-.722,6.145,6.036,6.036,0,0,1-2.341,3.395,9.6,9.6,0,0,1-8.857-.02Zm6.048-3.746a11.67,11.67,0,0,0,.449-3.824v-7.452a11.533,11.533,0,0,0-.449-3.765,1.606,1.606,0,0,0-1.58-1.19,1.583,1.583,0,0,0-1.541,1.19,11.508,11.508,0,0,0-.449,3.765v7.452a12.144,12.144,0,0,0,.429,3.824,1.57,1.57,0,0,0,1.561,1.17A1.6,1.6,0,0,0,263.271,129.607Z" transform="translate(-237.987 -100.109)" fill="#fff"/>
        <path id="Trazado_722" data-name="Trazado 722" d="M438.945,123.91v1.209a31.791,31.791,0,0,0,.137,3.453,3.274,3.274,0,0,0,.566,1.678,1.609,1.609,0,0,0,1.326.527,1.67,1.67,0,0,0,1.658-.937,8.142,8.142,0,0,0,.488-3.121l4.643.273a7.32,7.32,0,0,1,.039.859,6.344,6.344,0,0,1-1.814,4.955,7.389,7.389,0,0,1-5.131,1.639q-3.98,0-5.58-2.5t-1.6-7.726v-4.175q0-5.385,1.659-7.862t5.677-2.478a7.5,7.5,0,0,1,4.253,1.015,5.447,5.447,0,0,1,2.087,3.16,22.857,22.857,0,0,1,.6,5.931v4.1Zm.683-10.066a3.29,3.29,0,0,0-.546,1.658,32.293,32.293,0,0,0-.137,3.492v1.717h3.94v-1.717a29.088,29.088,0,0,0-.156-3.492,3.343,3.343,0,0,0-.566-1.678,1.564,1.564,0,0,0-1.268-.488A1.534,1.534,0,0,0,439.627,113.844Z" transform="translate(-336.839 -100.131)" fill="#fff"/>
        <path id="Trazado_723" data-name="Trazado 723" d="M224.177,113.2l-6.125-22.123H223.4l2.146,10.028q.819,3.707,1.209,6.321h.156q.273-1.873,1.21-6.282l2.224-10.067h5.346l-6.2,22.123v10.613h-5.306Z" transform="translate(-218.052 -89.866)" fill="#fff"/>
        <path id="Trazado_724" data-name="Trazado 724" d="M308.236,110.711v23.917h-4.214l-.468-2.926h-.117a5.509,5.509,0,0,1-5.15,3.316,4.045,4.045,0,0,1-3.512-1.561,8.377,8.377,0,0,1-1.131-4.877v-17.87h5.384v17.558a5.361,5.361,0,0,0,.351,2.282,1.215,1.215,0,0,0,1.171.683,2.388,2.388,0,0,0,1.346-.429,2.657,2.657,0,0,0,.956-1.092v-19Z" transform="translate(-259.695 -100.683)" fill="#fff"/>
        <path id="Trazado_725" data-name="Trazado 725" d="M369.732,110.711v23.917h-4.214l-.468-2.926h-.117a5.509,5.509,0,0,1-5.15,3.316,4.045,4.045,0,0,1-3.512-1.561,8.373,8.373,0,0,1-1.131-4.877v-17.87h5.384v17.558a5.361,5.361,0,0,0,.351,2.282,1.215,1.215,0,0,0,1.171.683,2.389,2.389,0,0,0,1.346-.429,2.657,2.657,0,0,0,.956-1.092v-19Z" transform="translate(-293.573 -100.683)" fill="#fff"/>
        <path id="Trazado_726" data-name="Trazado 726" d="M339.14,95.408h-5.345v28.4h-5.267v-28.4h-5.345V91.077H339.14Z" transform="translate(-275.968 -89.867)" fill="#fff"/>
        <path id="Trazado_727" data-name="Trazado 727" d="M409.435,102.234a6.153,6.153,0,0,0-1.58-3.277,4.246,4.246,0,0,0-3-1.015,4.983,4.983,0,0,0-2.771.839,5.7,5.7,0,0,0-1.99,2.2h-.039v-12.6h-5.189v33.945h4.448l.546-2.263h.117a4.567,4.567,0,0,0,1.873,1.912,5.55,5.55,0,0,0,2.771.7,4.24,4.24,0,0,0,4.019-2.517q1.287-2.517,1.288-7.862v-3.785A31.435,31.435,0,0,0,409.435,102.234ZM404.5,111.99a30.263,30.263,0,0,1-.215,4.1,4.426,4.426,0,0,1-.722,2.107,1.668,1.668,0,0,1-1.366.624,2.491,2.491,0,0,1-1.229-.312,2.349,2.349,0,0,1-.917-.936V103.991a3.4,3.4,0,0,1,.936-1.6,2.072,2.072,0,0,1,1.443-.624,1.456,1.456,0,0,1,1.268.644,4.95,4.95,0,0,1,.624,2.166,40.464,40.464,0,0,1,.176,4.33Z" transform="translate(-315.456 -88.383)" fill="#fff"/>
      </g>
    </g>
  </g>
</svg>
